<mxfile host="app.diagrams.net" modified="2023-07-13T05:55:08.794Z" agent="Mozilla/5.0 (Windows NT 10.0; Win64; x64) AppleWebKit/537.36 (KHTML, like Gecko) Chrome/114.0.0.0 Safari/537.36 Edg/114.0.1823.67" etag="5swEQ5eli3SyeP4xk_dJ" version="21.5.2" type="github">
  <diagram name="第 1 页" id="xeDGG-nsPCfhtsi6Jx4C">
    <mxGraphModel dx="869" dy="553" grid="0" gridSize="10" guides="1" tooltips="1" connect="1" arrows="1" fold="1" page="1" pageScale="1" pageWidth="827" pageHeight="1169" math="0" shadow="0">
      <root>
        <mxCell id="0" />
        <mxCell id="1" parent="0" />
        <mxCell id="8nwUQXhwKv03xpFlqHcw-1" style="edgeStyle=orthogonalEdgeStyle;rounded=0;orthogonalLoop=1;jettySize=auto;html=1;exitX=0.5;exitY=1;exitDx=0;exitDy=0;entryX=0.5;entryY=0;entryDx=0;entryDy=0;" edge="1" parent="1" source="8nwUQXhwKv03xpFlqHcw-2" target="8nwUQXhwKv03xpFlqHcw-7">
          <mxGeometry relative="1" as="geometry" />
        </mxCell>
        <mxCell id="8nwUQXhwKv03xpFlqHcw-2" value="申请人" style="rounded=1;whiteSpace=wrap;html=1;fontSize=12;glass=0;strokeWidth=1;shadow=0;" vertex="1" parent="1">
          <mxGeometry x="160" y="150" width="120" height="40" as="geometry" />
        </mxCell>
        <mxCell id="8nwUQXhwKv03xpFlqHcw-3" style="edgeStyle=orthogonalEdgeStyle;rounded=0;orthogonalLoop=1;jettySize=auto;html=1;exitX=0.5;exitY=1;exitDx=0;exitDy=0;entryX=0.5;entryY=0;entryDx=0;entryDy=0;" edge="1" parent="1" source="8nwUQXhwKv03xpFlqHcw-4" target="8nwUQXhwKv03xpFlqHcw-2">
          <mxGeometry relative="1" as="geometry" />
        </mxCell>
        <mxCell id="8nwUQXhwKv03xpFlqHcw-4" value="开始" style="ellipse;whiteSpace=wrap;html=1;aspect=fixed;fillColor=#dae8fc;strokeColor=#6c8ebf;" vertex="1" parent="1">
          <mxGeometry x="195" y="80" width="50" height="50" as="geometry" />
        </mxCell>
        <mxCell id="8nwUQXhwKv03xpFlqHcw-5" value="结束" style="ellipse;whiteSpace=wrap;html=1;aspect=fixed;fillColor=#d5e8d4;strokeColor=#82b366;" vertex="1" parent="1">
          <mxGeometry x="195" y="510" width="50" height="50" as="geometry" />
        </mxCell>
        <mxCell id="8nwUQXhwKv03xpFlqHcw-6" style="edgeStyle=orthogonalEdgeStyle;rounded=0;orthogonalLoop=1;jettySize=auto;html=1;exitX=0.5;exitY=1;exitDx=0;exitDy=0;entryX=0.5;entryY=0;entryDx=0;entryDy=0;" edge="1" parent="1" source="8nwUQXhwKv03xpFlqHcw-12" target="8nwUQXhwKv03xpFlqHcw-5">
          <mxGeometry relative="1" as="geometry" />
        </mxCell>
        <mxCell id="8nwUQXhwKv03xpFlqHcw-14" style="edgeStyle=orthogonalEdgeStyle;rounded=0;orthogonalLoop=1;jettySize=auto;html=1;exitX=0.5;exitY=1;exitDx=0;exitDy=0;entryX=0.5;entryY=0;entryDx=0;entryDy=0;" edge="1" parent="1" source="8nwUQXhwKv03xpFlqHcw-7" target="8nwUQXhwKv03xpFlqHcw-9">
          <mxGeometry relative="1" as="geometry" />
        </mxCell>
        <mxCell id="8nwUQXhwKv03xpFlqHcw-7" value="直属领导" style="rounded=1;whiteSpace=wrap;html=1;fontSize=12;glass=0;strokeWidth=1;shadow=0;" vertex="1" parent="1">
          <mxGeometry x="160" y="230" width="120" height="40" as="geometry" />
        </mxCell>
        <mxCell id="8nwUQXhwKv03xpFlqHcw-10" style="edgeStyle=orthogonalEdgeStyle;rounded=0;orthogonalLoop=1;jettySize=auto;html=1;exitX=1;exitY=0.5;exitDx=0;exitDy=0;dashed=1;" edge="1" parent="1" source="8nwUQXhwKv03xpFlqHcw-9">
          <mxGeometry relative="1" as="geometry">
            <mxPoint x="320" y="320" as="targetPoint" />
          </mxGeometry>
        </mxCell>
        <mxCell id="8nwUQXhwKv03xpFlqHcw-15" style="edgeStyle=orthogonalEdgeStyle;rounded=0;orthogonalLoop=1;jettySize=auto;html=1;exitX=0.5;exitY=1;exitDx=0;exitDy=0;entryX=0.5;entryY=0;entryDx=0;entryDy=0;" edge="1" parent="1" source="8nwUQXhwKv03xpFlqHcw-9" target="8nwUQXhwKv03xpFlqHcw-12">
          <mxGeometry relative="1" as="geometry" />
        </mxCell>
        <mxCell id="8nwUQXhwKv03xpFlqHcw-9" value="团队会审" style="rounded=1;whiteSpace=wrap;html=1;fontSize=12;glass=0;strokeWidth=1;shadow=0;" vertex="1" parent="1">
          <mxGeometry x="160" y="300" width="120" height="40" as="geometry" />
        </mxCell>
        <mxCell id="8nwUQXhwKv03xpFlqHcw-11" value="HR部门、蓝光财务、OA团队、U9C团队" style="shape=document;whiteSpace=wrap;html=1;boundedLbl=1;" vertex="1" parent="1">
          <mxGeometry x="320" y="280" width="120" height="80" as="geometry" />
        </mxCell>
        <mxCell id="8nwUQXhwKv03xpFlqHcw-12" value="董事长" style="rounded=1;whiteSpace=wrap;html=1;fontSize=12;glass=0;strokeWidth=1;shadow=0;" vertex="1" parent="1">
          <mxGeometry x="160" y="370" width="120" height="40" as="geometry" />
        </mxCell>
        <mxCell id="8nwUQXhwKv03xpFlqHcw-16" value="执行调整" style="rounded=1;whiteSpace=wrap;html=1;fontSize=12;glass=0;strokeWidth=1;shadow=0;" vertex="1" parent="1">
          <mxGeometry x="160" y="440" width="120" height="40" as="geometry" />
        </mxCell>
      </root>
    </mxGraphModel>
  </diagram>
</mxfile>
